HIERARCHY
ROOT Hips
{
    OFFSET 0.000000 0.000000 0.000000
    CHANNELS 6 Xposition Yposition Zposition Zrotation Xrotation Yrotation
        JOINT Chest
        {
            OFFSET -0.000000 26.978363 -0.000000
            CHANNELS 3 Zrotation Xrotation Yrotation
            JOINT Neck
            {
                OFFSET -0.000000 19.720629 0.000000
                CHANNELS 3 Zrotation Xrotation Yrotation
                JOINT Head
                {
                    OFFSET -0.000000 9.655557 0.000000
                    CHANNELS 3 Zrotation Xrotation Yrotation
                    End Site
                    {
                        OFFSET -0.000000 14.922232 0.000000
                    }
                }
            }
            JOINT LeftCollar
            {
                OFFSET -0.000000 19.720629 0.000000
                CHANNELS 3 Zrotation Xrotation Yrotation
                JOINT LeftShoulder
                {
                    OFFSET 17.555553 -0.000000 0.000000
                    CHANNELS 3 Zrotation Xrotation Yrotation
                    JOINT LeftElbow
                    {
                        OFFSET 22.589397 0.000000 0.000000
                        CHANNELS 3 Zrotation Xrotation Yrotation
                        JOINT LeftWrist
                        {
                            OFFSET 20.401022 0.000000 0.000000
                            CHANNELS 3 Zrotation Xrotation Yrotation
                            End Site
                            {
                                OFFSET 0.000000 -13.166666 0.000000
                            }
                        }
                    }
                }
            }
            JOINT RightCollar
            {
                OFFSET -0.000000 19.720629 0.000000
                CHANNELS 3 Zrotation Xrotation Yrotation
                JOINT RightShoulder
                {
                    OFFSET -17.555553 0.000000 0.000000
                    CHANNELS 3 Zrotation Xrotation Yrotation
                    JOINT RightElbow
                    {
                        OFFSET -22.589397 0.000000 0.000000
                        CHANNELS 3 Zrotation Xrotation Yrotation
                        JOINT RightWrist
                        {
                            OFFSET -20.401022 0.000000 0.000000
                            CHANNELS 3 Zrotation Xrotation Yrotation
                            End Site
                            {
                                OFFSET -0.000000 -13.166666 0.000000
                            }
                        }
                    }
                }
            }
        }
    JOINT LeftHip
    {
        OFFSET 10.533332 0.000000 0.000000
        CHANNELS 3 Zrotation Xrotation Yrotation
        JOINT LeftKnee
        {
            OFFSET -0.000000 -40.048210 0.000000
            CHANNELS 3 Zrotation Xrotation Yrotation
            JOINT LeftAnkle
            {
                OFFSET -0.000000 -36.098888 0.000000
                CHANNELS 3 Zrotation Xrotation Yrotation
                End Site
                {
                    OFFSET -0.000000 -4.388888 14.922232
                }
            }
        }
    }
    JOINT RightHip
    {
        OFFSET -10.533332 0.000000 0.000000
        CHANNELS 3 Zrotation Xrotation Yrotation
        JOINT RightKnee
        {
            OFFSET -0.000000 -40.048210 0.000000
            CHANNELS 3 Zrotation Xrotation Yrotation
            JOINT RightAnkle
            {
                OFFSET -0.000000 -36.098888 0.000000
                CHANNELS 3 Zrotation Xrotation Yrotation
                End Site
                {
                    OFFSET -0.000000 -4.388888 14.922232
                }
            }
        }
    }
}
MOTION
Frames:    14
Frame Time:    0.010000
46.128941    83.254723    -38.572048    -2.384361    0.706646    -69.081451    -6.736377    8.131628    0.724749    13.625755    -3.097014    22.218769    -5.788497    10.634353    23.375032    -19.669910    3.828734    -21.670610    -32.022346    27.883032    -30.936510    -2.239165    0.174399    -7.899113    106.025581    32.135456    94.926132    10.351666    0.019072    0.519401    55.352276    27.114935    28.122635    5.887198    2.440763    45.470493    -46.524010    -4.569435    4.638920    5.741535    -21.857389    8.598620    7.388103    18.017042    -6.483362    -8.467746    5.231011    -9.675745    8.532866    5.415974    -9.434473    1.632358    2.874858    -9.960482    -3.169755    -10.604081    -9.311135    
46.139271    83.254913    -38.577122    -2.381930    0.699425    -69.117172    -6.725924    8.032619    0.733372    13.757835    -3.377003    22.220936    -7.515310    6.630985    22.248951    -19.758297    3.894198    -21.990580    -32.097244    27.973772    -30.716312    -2.288302    0.141238    -7.807140    106.408470    32.002197    94.930855    10.405443    0.019414    0.209412    55.307110    27.262884    28.109356    6.115991    2.588020    45.327232    -47.186413    -4.747355    4.823461    5.741712    -21.840687    8.680774    7.415493    17.972977    -6.514400    -10.009816    5.004982    -9.031913    8.510994    5.421058    -9.402202    1.667989    2.857588    -9.978344    -3.273003    -10.589962    -9.311979    
46.140125    83.233795    -38.576145    -2.385976    0.695441    -69.124626    -6.708584    7.993374    0.751426    13.697705    -3.267267    22.165266    -7.576079    6.519323    22.202236    -19.795225    3.887755    -22.031261    -32.134796    27.892778    -30.634090    -2.407315    0.192091    -7.762206    106.753380    31.924149    94.793343    10.349876    -0.008743    0.163379    55.468040    27.242966    28.048512    6.308359    2.689000    45.299393    -47.420116    -4.574174    5.115756    5.735582    -21.831398    8.614932    7.398193    17.959249    -6.453125    -9.648131    5.066219    -9.159942    8.521433    5.411500    -9.416102    1.640839    2.861077    -9.952563    -3.201625    -10.574421    -9.296959    
46.148357    83.234192    -38.580811    -2.388329    0.691521    -69.138420    -6.697042    7.951777    0.765571    13.690786    -3.320737    22.188885    -7.510306    6.709726    22.232080    -19.815882    3.926287    -22.071781    -32.190655    27.844643    -30.562164    -2.513047    0.161776    -7.668956    107.070534    31.801109    94.635468    10.327626    0.025468    0.109765    55.518402    27.246628    28.053913    6.557484    2.814204    45.154335    -47.765190    -4.574347    5.348672    5.734583    -21.824387    8.627215    7.404355    17.946590    -6.458510    -9.797994    5.045875    -9.088848    8.517053    5.410016    -9.413256    1.643191    2.858852    -9.943848    -3.204371    -10.564452    -9.296752    
46.158794    83.236130    -38.586922    -2.391475    0.688208    -69.153442    -6.682955    7.905248    0.782863    13.680850    -3.364480    22.211769    -7.453360    6.876488    22.257586    -19.858480    3.922188    -22.112587    -32.206692    27.838472    -30.492414    -2.558891    0.196165    -7.638104    107.277168    31.754473    94.622345    10.300438    -0.008836    0.056949    55.605511    27.306145    28.005224    6.654177    2.822608    45.170029    -47.996643    -4.508075    5.556458    5.735188    -21.819910    8.649061    7.414003    17.938345    -6.478147    -9.882849    5.033556    -9.040004    8.513206    5.407288    -9.411063    1.645468    2.858069    -9.932536    -3.207416    -10.553391    -9.296330    
46.171253    83.238716    -38.594360    -2.394909    0.686511    -69.169624    -6.666347    7.853495    0.802815    13.671823    -3.390989    22.227280    -7.410062    7.023294    22.276825    -19.906273    3.920229    -22.164425    -32.247181    27.829889    -30.393248    -2.651073    0.173903    -7.569697    107.579765    31.651808    94.492615    10.270990    0.025414    -0.001930    55.684475    27.306480    27.994112    6.933695    2.962511    45.000198    -48.396790    -4.514884    5.833292    5.738392    -21.820099    8.680196    7.427042    17.936478    -6.511138    -9.895885    5.030528    -9.017081    8.510998    5.401835    -9.409256    1.647321    2.859559    -9.919030    -3.210845    -10.541803    -9.296260    
46.185555    83.241158    -38.603069    -2.398200    0.687420    -69.187119    -6.647493    7.797304    0.824795    13.664969    -3.398342    22.235500    -7.384449    7.144232    22.290195    -19.942871    3.956491    -22.223930    -32.291378    27.788937    -30.298708    -2.772627    0.169995    -7.470631    107.895164    31.527662    94.337379    10.240919    -0.002545    -0.065430    55.791916    27.358955    27.934340    7.045166    2.976921    45.000900    -48.643795    -4.444526    6.072202    5.745209    -21.825888    8.713758    7.441077    17.941252    -6.546483    -9.841030    5.038259    -9.022541    8.511520    5.392217    -9.407308    1.648402    2.864368    -9.903321    -3.214728    -10.530301    -9.297320    
46.201408    83.242813    -38.612904    -2.401412    0.691366    -69.206085    -6.625775    7.740840    0.847910    13.658735    -3.391195    22.244555    -7.375088    7.239874    22.305798    -19.993025    3.955585    -22.271441    -32.290047    27.786072    -30.221870    -2.851986    0.180372    -7.428097    108.145203    31.447474    94.264435    10.209466    -0.030470    -0.121789    55.910339    27.403368    27.862265    7.219744    3.054182    44.924282    -48.948788    -4.408718    6.326239    5.755983    -21.836222    8.736894    7.451902    17.951185    -6.564350    -9.732518    5.057870    -9.056998    8.515426    5.378126    -9.404624    1.648424    2.872891    -9.885714    -3.219010    -10.519298    -9.299763    
46.218418    83.243256    -38.623646    -2.404861    0.698513    -69.226372    -6.602097    7.685321    0.870759    13.657244    -3.364819    22.244789    -7.388715    7.299812    22.313656    -20.034920    3.972729    -22.331459    -32.308346    27.766312    -30.132566    -2.978528    0.176828    -7.344826    108.452545    31.310719    94.116821    10.180463    0.003872    -0.186710    56.010475    27.398825    27.835115    7.470154    3.175037    44.773033    -49.293213    -4.385513    6.609690    5.770694    -21.849375    8.736541    7.455404    17.964319    -6.544971    -9.596439    5.088215    -9.116074    8.523119    5.360059    -9.400702    1.647367    2.884863    -9.867113    -3.223893    -10.508954    -9.303416    
46.236076    83.242271    -38.634979    -2.409389    0.708598    -69.247932    -6.576368    7.635162    0.891958    13.657059    -3.327982    22.247232    -7.418538    7.334778    22.324867    -20.055214    4.023835    -22.384304    -32.316090    27.710426    -30.071737    -3.119236    0.223052    -7.250275    108.736298    31.163330    94.003937    10.151555    -0.040253    -0.246547    56.138664    27.454945    27.752970    7.526184    3.151736    44.820091    -49.449535    -4.266149    6.837623    5.789142    -21.862988    8.705087    7.449041    17.978872    -6.476653    -9.464687    5.125481    -9.189856    8.534732    5.339583    -9.394925    1.645115    2.899560    -9.848125    -3.229388    -10.499436    -9.308328    
46.253925    83.239807    -38.646542    -2.415851    0.721178    -69.270554    -6.548605    7.591944    0.910552    13.659430    -3.283217    22.249033    -7.463871    7.345724    22.335426    -20.094959    4.009923    -22.435528    -32.272381    27.721628    -30.024290    -3.210743    0.206481    -7.237022    108.986397    31.040964    93.927032    10.124205    -0.020338    -0.308098    56.246197    27.451691    27.715487    7.747908    3.253036    44.688759    -49.731091    -4.212231    7.109796    5.810939    -21.875217    8.641600    7.432497    17.993784    -6.357775    -9.365620    5.164904    -9.266730    8.549968    5.318541    -9.387030    1.641910    2.915978    -9.829124    -3.235712    -10.490795    -9.314479    
46.271534    83.235992    -38.657875    -2.425436    0.735442    -69.293930    -6.518487    7.556544    0.925854    13.663349    -3.236333    22.253212    -7.519400    7.342368    22.348660    -20.105183    4.051216    -22.479910    -32.273556    27.680386    -29.977034    -3.379684    0.199582    -7.134063    109.304695    30.830482    93.759399    10.097649    -0.048159    -0.367753    56.364178    27.489830    27.652832    7.804974    3.241246    44.717903    -49.842258    -4.080028    7.332499    5.835379    -21.884459    8.552354    7.407850    18.008854    -6.197903    -9.317889    5.201602    -9.335207    8.568287    5.299420    -9.376920    1.638019    2.932828    -9.811310    -3.242765    -10.482910    -9.321246    
46.288624    83.231087    -38.668434    -2.439281    0.750222    -69.317978    -6.486207    7.528152    0.937610    13.670366    -3.189862    22.258919    -7.582995    7.329463    22.363110    -20.132547    4.041108    -22.511635    -32.210167    27.709677    -29.963488    -3.470824    0.230913    -7.118443    109.494965    30.704113    93.765419    10.073120    -0.020012    -0.425851    56.456364    27.483320    27.634983    7.976974    3.318732    44.617111    -50.045338    -4.004474    7.580319    5.861361    -21.889723    8.449754    7.379329    18.024778    -6.015790    -9.328592    5.231223    -9.386073    8.588369    5.284649    -9.364952    1.634211    2.949079    -9.794999    -3.250808    -10.475582    -9.328041    
46.305092    83.225372    -38.677704    -2.458039    0.764362    -69.342514    -6.452076    7.505286    0.945432    13.681320    -3.145043    22.266884    -7.652031    7.310215    22.379343    -20.151756    4.049053    -22.524345    -32.166553    27.744297    -29.954798    -3.598972    0.218650    -7.052623    109.743469    30.517773    93.700684    10.051055    -0.019838    -0.478856    56.546680    27.506571    27.605532    8.016437    3.318310    44.637218    -50.114716    -3.882074    7.778708    5.887630    -21.890818    8.348286    7.351844    18.042471    -5.832452    -9.393980    5.250974    -9.415251    8.608688    5.275936    -9.351882    1.631348    2.964134    -9.780559    -3.259958    -10.468740    -9.334075    
